Hanif_Shallow_2_5_grf.mot
version=1
nRows=48
nColumns=19
inDegrees=yes
endheader
time	right_ground_force_vx	right_ground_force_vy	right_ground_force_vz	right_ground_force_px	right_ground_force_py	right_ground_force_pz	right_ground_torque_x	right_ground_torque_y	right_ground_torque_z	left_ground_force_vx	left_ground_force_vy	left_ground_force_vz	left_ground_force_px	left_ground_force_py	left_ground_force_pz	left_ground_torque_x	left_ground_torque_y	left_ground_torque_z
1.670000	6.619540	256.715000	56.170800	0.208225	0.000000	-1.445580	-15.504100	0.223958	2.174140	-0.638655	287.733000	-61.942600	0.216329	0.000000	-0.959346	16.216900	-0.847900	5.106550
1.675000	6.361190	255.242000	56.173800	0.207563	0.000000	-1.445240	-15.501000	0.286715	2.002030	0.166729	288.819000	-61.701700	0.215695	0.000000	-0.958429	16.007800	-0.950432	4.940950
1.680000	7.092420	254.491000	56.157100	0.207248	0.000000	-1.447050	-14.994500	0.306963	1.909800	-0.446533	286.996000	-61.055500	0.215025	0.000000	-0.958502	15.931900	-0.967729	4.718530
1.685000	7.108360	253.008000	56.603900	0.207340	0.000000	-1.445630	-15.266400	0.249754	1.909880	-0.183940	285.497000	-61.168800	0.213826	0.000000	-0.958814	15.935900	-0.954337	4.335130
1.690000	6.994770	253.758000	55.710900	0.207105	0.000000	-1.447760	-14.770900	0.288458	1.863700	0.368543	284.434000	-60.816800	0.214217	0.000000	-0.958637	15.822700	-0.986250	4.435260
1.695000	6.878960	256.699000	55.624400	0.207046	0.000000	-1.447250	-15.073000	0.265981	1.863610	-0.187124	284.420000	-60.983800	0.213607	0.000000	-0.957942	15.627900	-1.137580	4.294110
1.700000	6.090440	255.251000	56.180000	0.205167	0.000000	-1.446850	-15.094000	0.213831	1.350540	0.618321	284.779000	-61.024600	0.212216	0.000000	-0.958422	15.779300	-1.042560	3.854720
1.705000	5.356580	255.238000	55.747600	0.205271	0.000000	-1.447310	-14.973400	0.271797	1.400200	-0.444202	284.810000	-60.179100	0.212661	0.000000	-0.957567	15.544200	-1.107670	4.006010
1.710000	4.185540	254.181000	55.510300	0.205149	0.000000	-1.447340	-14.907900	0.154662	1.351260	-0.982406	285.163000	-59.890300	0.212573	0.000000	-0.957626	15.584000	-1.091940	3.984130
1.715000	3.643690	252.704000	55.244900	0.205350	0.000000	-1.446440	-15.048300	0.175118	1.407430	-1.519570	283.734000	-59.512700	0.212001	0.000000	-0.957470	15.465200	-1.109790	3.804910
1.720000	2.477400	251.613000	55.185300	0.204431	0.000000	-1.446000	-15.093900	0.118013	1.161680	-1.780890	282.629000	-59.498900	0.212346	0.000000	-0.958561	15.715700	-1.172730	3.911770
1.725000	2.027470	250.906000	55.287000	0.205270	0.000000	-1.447220	-14.746200	0.074303	1.376600	-2.795560	285.189000	-59.374400	0.212047	0.000000	-0.955738	15.060900	-1.225320	3.870450
1.730000	1.761010	249.813000	55.017300	0.204076	0.000000	-1.448250	-14.424100	0.198664	1.089080	-2.535470	284.814000	-59.662900	0.211618	0.000000	-0.956736	15.322300	-1.144010	3.722220
1.735000	1.449280	252.060000	54.312400	0.204688	0.000000	-1.449290	-14.292800	0.254539	1.273770	-3.341990	284.809000	-59.459900	0.211349	0.000000	-0.956680	15.312100	-1.161360	3.653210
1.740000	0.684454	249.878000	55.229600	0.204083	0.000000	-1.448640	-14.331200	0.096966	1.082760	-3.873440	281.528000	-59.164800	0.211557	0.000000	-0.957257	15.302200	-1.091300	3.670870
1.745000	-0.042929	249.162000	54.881400	0.203892	0.000000	-1.448540	-14.316400	-0.021144	1.012750	-4.418330	281.919000	-59.237500	0.211458	0.000000	-0.956998	15.253900	-1.060530	3.645720
1.750000	0.026235	249.867000	54.348600	0.204318	0.000000	-1.448570	-14.350600	0.198856	1.172820	-4.339290	284.460000	-59.523000	0.211126	0.000000	-0.956383	15.214900	-1.045610	3.570680
1.755000	-0.340978	251.368000	54.537800	0.203582	0.000000	-1.448710	-14.401700	0.077316	0.963823	-4.461100	285.227000	-59.818100	0.210080	0.000000	-0.955841	15.102800	-1.148470	3.291870
1.760000	-0.850354	249.563000	55.001800	0.204025	0.000000	-1.448620	-14.321100	0.158251	1.099010	-4.724500	283.825000	-59.633100	0.210252	0.000000	-0.956422	15.194800	-1.081330	3.318570
1.765000	-0.696701	252.082000	54.812600	0.202801	0.000000	-1.449440	-14.258100	0.199596	0.791544	-4.576050	286.328000	-60.092200	0.210003	0.000000	-0.955326	15.014500	-1.166900	3.285320
1.770000	-0.247938	252.094000	54.812500	0.202853	0.000000	-1.448620	-14.464700	0.240277	0.808674	-4.226650	286.333000	-60.739500	0.209409	0.000000	-0.955438	15.043300	-1.136230	3.103530
1.775000	-0.244443	250.191000	54.532200	0.202777	0.000000	-1.448850	-14.298000	0.162707	0.766219	-4.061400	287.765000	-60.935000	0.209413	0.000000	-0.955026	14.997800	-1.102030	3.108180
1.780000	-0.318321	250.272000	54.896900	0.202104	0.000000	-1.450620	-13.860000	0.403696	0.644410	-4.251580	287.777000	-61.472000	0.208564	0.000000	-0.955075	15.013900	-1.139640	2.867860
1.785000	-0.143830	250.270000	54.803100	0.202317	0.000000	-1.450240	-13.955000	0.346325	0.685223	-3.637600	287.756000	-61.760600	0.208896	0.000000	-0.955315	15.077800	-1.155250	2.966490
1.790000	0.410745	250.983000	55.423600	0.200178	0.000000	-1.449880	-14.083100	0.535396	0.159864	-4.099560	288.838000	-61.667500	0.207391	0.000000	-0.954927	15.026700	-1.312430	2.557650
1.795000	0.705719	249.887000	55.688000	0.200000	0.000000	-1.451210	-13.690700	0.418907	0.084825	-4.459190	289.206000	-61.397100	0.207485	0.000000	-0.952935	14.471500	-1.261460	2.577210
1.800000	1.786340	250.997000	55.843800	0.200476	0.000000	-1.451030	-13.794300	0.641840	0.246223	-4.895210	289.247000	-61.015900	0.207183	0.000000	-0.953894	14.756100	-1.394700	2.516830
1.805000	2.242280	251.627000	56.116900	0.198915	0.000000	-1.452510	-13.454300	0.625666	-0.173764	-5.341450	288.153000	-60.651800	0.206292	0.000000	-0.954201	14.789900	-1.299720	2.224590
1.810000	2.369600	249.093000	56.824200	0.198516	0.000000	-1.450840	-13.734100	0.731937	-0.251764	-5.161780	287.412000	-60.731400	0.206871	0.000000	-0.954844	14.935700	-1.278220	2.389560
1.815000	2.437980	249.813000	56.378700	0.198122	0.000000	-1.451080	-13.715900	0.692609	-0.366874	-6.507700	287.788000	-60.439100	0.206099	0.000000	-0.954184	14.775800	-1.314930	2.178790
1.820000	1.800660	250.163000	56.568000	0.197762	0.000000	-1.450930	-13.774100	0.612962	-0.472416	-6.249110	285.952000	-60.613700	0.205915	0.000000	-0.954887	14.880500	-1.299140	2.111500
1.825000	1.894990	250.543000	56.300300	0.198394	0.000000	-1.452470	-13.408500	0.587285	-0.313410	-6.316340	285.600000	-60.254500	0.205630	0.000000	-0.954701	14.813500	-1.497130	2.064190
1.830000	1.871530	249.112000	56.033900	0.198181	0.000000	-1.451410	-13.596800	0.628064	-0.357825	-5.530910	283.727000	-60.376800	0.205063	0.000000	-0.953864	14.470400	-1.416360	1.862900
1.835000	1.812360	251.675000	56.863400	0.197757	0.000000	-1.452610	-13.433800	0.608344	-0.477863	-5.714340	285.154000	-60.547000	0.205569	0.000000	-0.953646	14.481300	-1.333200	2.004020
1.840000	2.177350	250.933000	57.103600	0.197627	0.000000	-1.452800	-13.344900	0.671041	-0.499965	-5.631700	283.360000	-60.746100	0.204414	0.000000	-0.953475	14.340500	-1.352280	1.658980
1.845000	2.177080	250.177000	56.744900	0.197491	0.000000	-1.451690	-13.582500	0.652320	-0.538935	-6.171490	282.983000	-60.457200	0.204475	0.000000	-0.952775	14.127100	-1.334460	1.674800
1.850000	2.881650	252.386000	57.365500	0.196632	0.000000	-1.452270	-13.557100	0.651702	-0.781053	-5.799150	282.644000	-60.830800	0.204370	0.000000	-0.954504	14.596700	-1.350860	1.647500
1.855000	2.774580	253.140000	57.193100	0.197417	0.000000	-1.452260	-13.597700	0.753979	-0.550699	-6.090920	283.321000	-61.377200	0.202782	0.000000	-0.954254	14.562700	-1.440680	1.204880
1.860000	3.351780	253.871000	57.815000	0.196706	0.000000	-1.452100	-13.677000	0.838105	-0.729774	-5.310620	284.751000	-61.565100	0.204235	0.000000	-0.953505	14.417300	-1.404380	1.623950
1.865000	4.491800	258.658000	57.902100	0.195910	0.000000	-1.453270	-13.631200	0.939115	-0.953634	-5.232230	285.150000	-61.684900	0.202123	0.000000	-0.953630	14.471000	-1.444710	1.003660
1.870000	5.407290	259.704000	58.863700	0.195164	0.000000	-1.452520	-13.875200	1.189540	-1.116320	-5.616220	286.873000	-62.130000	0.201923	0.000000	-0.952882	14.345400	-1.413910	0.944396
1.875000	6.057590	260.494000	58.951400	0.194921	0.000000	-1.453020	-13.789500	1.113980	-1.211440	-5.432370	287.633000	-62.233100	0.201764	0.000000	-0.951720	14.048800	-1.492430	0.911314
1.880000	6.709010	260.484000	59.930100	0.193504	0.000000	-1.452690	-13.873800	1.224370	-1.582350	-5.231490	284.734000	-61.970800	0.200583	0.000000	-0.953041	14.281800	-1.518480	0.561311
1.885000	7.503330	263.079000	60.187600	0.193147	0.000000	-1.453770	-13.725100	1.386660	-1.669630	-4.114980	284.688000	-62.552200	0.200002	0.000000	-0.952661	14.164900	-1.655350	0.409150
1.890000	7.085300	263.390000	60.741600	0.192631	0.000000	-1.453910	-13.705600	1.391990	-1.808330	-4.510710	284.375000	-61.643700	0.199648	0.000000	-0.952381	14.072800	-1.690220	0.309824
1.895000	7.269390	261.599000	61.017900	0.191715	0.000000	-1.453410	-13.746800	1.256580	-2.081420	-3.823630	283.240000	-61.942100	0.198802	0.000000	-0.952794	14.128300	-1.710730	0.060323
1.900000	6.711460	262.046000	60.420400	0.190381	0.000000	-1.454880	-13.385500	1.363600	-2.419210	-3.624900	282.113000	-61.417600	0.197511	0.000000	-0.952575	14.010200	-1.887230	-0.285533
1.905000	6.790940	263.138000	61.130700	0.190688	0.000000	-1.455190	-13.357300	1.400810	-2.337370	-3.334100	279.284000	-60.980300	0.197063	0.000000	-0.952522	13.853400	-1.909820	-0.406451
